<mxfile host="app.diagrams.net" modified="2024-07-21T18:35:50.828Z" agent="Mozilla/5.0 (Windows NT 10.0; Win64; x64) AppleWebKit/537.36 (KHTML, like Gecko) Chrome/126.0.0.0 Safari/537.36 Edg/126.0.0.0" etag="9S-Qq_lljQIual2Pa6Ck" version="24.7.1" type="google">
  <diagram name="PÃ¡gina-1" id="pHUo19wL9KBaZ9pHuO83">
    <mxGraphModel grid="1" page="1" gridSize="10" guides="1" tooltips="1" connect="1" arrows="1" fold="1" pageScale="1" pageWidth="827" pageHeight="1169" math="0" shadow="0">
      <root>
        <mxCell id="0" />
        <mxCell id="1" parent="0" />
        <mxCell id="p7OLmfHsdkc1M3UdP-Vl-2" value="" style="rounded=0;whiteSpace=wrap;html=1;" vertex="1" parent="1">
          <mxGeometry x="80" y="140" width="210" height="250" as="geometry" />
        </mxCell>
        <mxCell id="p7OLmfHsdkc1M3UdP-Vl-3" value="" style="rounded=0;whiteSpace=wrap;html=1;" vertex="1" parent="1">
          <mxGeometry x="80" y="140" width="210" height="60" as="geometry" />
        </mxCell>
        <mxCell id="p7OLmfHsdkc1M3UdP-Vl-4" value="&lt;b&gt;&lt;font style=&quot;font-size: 18px;&quot;&gt;Felino&lt;/font&gt;&lt;/b&gt;" style="text;html=1;align=center;verticalAlign=middle;whiteSpace=wrap;rounded=0;" vertex="1" parent="1">
          <mxGeometry x="155" y="155" width="60" height="30" as="geometry" />
        </mxCell>
        <mxCell id="p7OLmfHsdkc1M3UdP-Vl-6" value="" style="rounded=0;whiteSpace=wrap;html=1;" vertex="1" parent="1">
          <mxGeometry x="80" y="200" width="210" height="100" as="geometry" />
        </mxCell>
        <mxCell id="p7OLmfHsdkc1M3UdP-Vl-7" value="&lt;font&gt;+Peso&lt;/font&gt;&lt;div&gt;&lt;br&gt;&lt;/div&gt;" style="text;html=1;align=left;verticalAlign=middle;whiteSpace=wrap;rounded=0;" vertex="1" parent="1">
          <mxGeometry x="100" y="210" width="60" height="20" as="geometry" />
        </mxCell>
        <mxCell id="p7OLmfHsdkc1M3UdP-Vl-8" value="+Tamanho " style="text;html=1;align=left;verticalAlign=middle;whiteSpace=wrap;rounded=0;" vertex="1" parent="1">
          <mxGeometry x="100" y="220" width="60" height="30" as="geometry" />
        </mxCell>
        <mxCell id="p7OLmfHsdkc1M3UdP-Vl-9" value="#Habitat" style="text;html=1;align=left;verticalAlign=middle;whiteSpace=wrap;rounded=0;" vertex="1" parent="1">
          <mxGeometry x="100" y="250" width="60" height="30" as="geometry" />
        </mxCell>
        <mxCell id="p7OLmfHsdkc1M3UdP-Vl-10" value="-Id" style="text;html=1;align=left;verticalAlign=middle;whiteSpace=wrap;rounded=0;" vertex="1" parent="1">
          <mxGeometry x="100" y="270" width="60" height="30" as="geometry" />
        </mxCell>
        <mxCell id="p7OLmfHsdkc1M3UdP-Vl-12" value="+ setId(id)" style="text;html=1;align=left;verticalAlign=middle;whiteSpace=wrap;rounded=0;" vertex="1" parent="1">
          <mxGeometry x="100" y="310" width="60" height="30" as="geometry" />
        </mxCell>
        <mxCell id="p7OLmfHsdkc1M3UdP-Vl-13" value="+ getId()" style="text;html=1;align=left;verticalAlign=middle;whiteSpace=wrap;rounded=0;" vertex="1" parent="1">
          <mxGeometry x="100" y="340" width="60" height="30" as="geometry" />
        </mxCell>
        <mxCell id="p7OLmfHsdkc1M3UdP-Vl-15" value="" style="rounded=0;whiteSpace=wrap;html=1;" vertex="1" parent="1">
          <mxGeometry x="80" y="420" width="210" height="120" as="geometry" />
        </mxCell>
        <mxCell id="p7OLmfHsdkc1M3UdP-Vl-16" value="" style="rounded=0;whiteSpace=wrap;html=1;" vertex="1" parent="1">
          <mxGeometry x="80" y="420" width="210" height="30" as="geometry" />
        </mxCell>
        <mxCell id="p7OLmfHsdkc1M3UdP-Vl-17" value="&lt;font style=&quot;font-size: 18px;&quot;&gt;&lt;b&gt;Jaguatirica&lt;/b&gt;&lt;/font&gt;" style="text;html=1;align=center;verticalAlign=middle;whiteSpace=wrap;rounded=0;" vertex="1" parent="1">
          <mxGeometry x="150" y="420" width="60" height="30" as="geometry" />
        </mxCell>
        <mxCell id="p7OLmfHsdkc1M3UdP-Vl-18" value="+cor" style="text;html=1;align=center;verticalAlign=middle;whiteSpace=wrap;rounded=0;" vertex="1" parent="1">
          <mxGeometry x="100" y="460" width="60" height="30" as="geometry" />
        </mxCell>
        <mxCell id="p7OLmfHsdkc1M3UdP-Vl-19" value="" style="rounded=0;whiteSpace=wrap;html=1;" vertex="1" parent="1">
          <mxGeometry x="80" y="500" width="210" height="40" as="geometry" />
        </mxCell>
        <mxCell id="p7OLmfHsdkc1M3UdP-Vl-21" value="+cacar()" style="text;html=1;align=center;verticalAlign=middle;whiteSpace=wrap;rounded=0;" vertex="1" parent="1">
          <mxGeometry x="100" y="505" width="60" height="30" as="geometry" />
        </mxCell>
        <mxCell id="p7OLmfHsdkc1M3UdP-Vl-22" value="" style="rounded=0;whiteSpace=wrap;html=1;" vertex="1" parent="1">
          <mxGeometry x="400" y="270" width="210" height="150" as="geometry" />
        </mxCell>
        <mxCell id="p7OLmfHsdkc1M3UdP-Vl-23" value="" style="rounded=0;whiteSpace=wrap;html=1;" vertex="1" parent="1">
          <mxGeometry x="400" y="270" width="210" height="50" as="geometry" />
        </mxCell>
        <mxCell id="p7OLmfHsdkc1M3UdP-Vl-24" value="&lt;font style=&quot;font-size: 18px;&quot;&gt;&lt;b&gt;Onca&lt;/b&gt;&lt;/font&gt;" style="text;html=1;align=center;verticalAlign=middle;whiteSpace=wrap;rounded=0;" vertex="1" parent="1">
          <mxGeometry x="470" y="280" width="60" height="30" as="geometry" />
        </mxCell>
        <mxCell id="p7OLmfHsdkc1M3UdP-Vl-25" value="" style="rounded=0;whiteSpace=wrap;html=1;" vertex="1" parent="1">
          <mxGeometry x="400" y="380" width="210" height="40" as="geometry" />
        </mxCell>
        <mxCell id="p7OLmfHsdkc1M3UdP-Vl-20" value="+Andar()" style="text;html=1;align=center;verticalAlign=middle;whiteSpace=wrap;rounded=0;" vertex="1" parent="1">
          <mxGeometry x="414" y="385" width="60" height="30" as="geometry" />
        </mxCell>
        <mxCell id="p7OLmfHsdkc1M3UdP-Vl-26" value="+pelagem" style="text;html=1;align=center;verticalAlign=middle;whiteSpace=wrap;rounded=0;" vertex="1" parent="1">
          <mxGeometry x="414" y="330" width="60" height="30" as="geometry" />
        </mxCell>
        <mxCell id="p7OLmfHsdkc1M3UdP-Vl-28" value="" style="endArrow=classic;html=1;rounded=0;entryX=1.011;entryY=0.674;entryDx=0;entryDy=0;entryPerimeter=0;" edge="1" parent="1" target="p7OLmfHsdkc1M3UdP-Vl-2">
          <mxGeometry width="50" height="50" relative="1" as="geometry">
            <mxPoint x="400" y="310" as="sourcePoint" />
            <mxPoint x="450" y="260" as="targetPoint" />
          </mxGeometry>
        </mxCell>
        <mxCell id="p7OLmfHsdkc1M3UdP-Vl-29" value="" style="endArrow=classic;html=1;rounded=0;exitX=0.5;exitY=0;exitDx=0;exitDy=0;entryX=0.47;entryY=1.003;entryDx=0;entryDy=0;entryPerimeter=0;" edge="1" parent="1" source="p7OLmfHsdkc1M3UdP-Vl-17" target="p7OLmfHsdkc1M3UdP-Vl-2">
          <mxGeometry width="50" height="50" relative="1" as="geometry">
            <mxPoint x="400" y="310" as="sourcePoint" />
            <mxPoint x="450" y="260" as="targetPoint" />
          </mxGeometry>
        </mxCell>
      </root>
    </mxGraphModel>
  </diagram>
</mxfile>
